HIERARCHY
ROOT Hips
{
	OFFSET 0.000000 0.000000 0.000000
	CHANNELS 6 Xposition Yposition Zposition Xrotation Yrotation Zrotation
	JOINT LeftUpLeg_virtual
	{
		OFFSET 0.000000 0.000000 0.000000
		CHANNELS 3 Xrotation Yrotation Zrotation
		JOINT LeftUpLeg
		{
			OFFSET 15.427100 -6.655098 0.678600
			CHANNELS 3 Xrotation Yrotation Zrotation
			JOINT LeftLeg
			{
				OFFSET 4.081073 -39.591068 13.024000
				CHANNELS 3 Xrotation Yrotation Zrotation
				JOINT LeftFoot
				{
					OFFSET -4.081074 -37.707932 -15.979700
					CHANNELS 3 Xrotation Yrotation Zrotation
					JOINT LeftToeBase
					{
						OFFSET 5.346399 -15.068900 20.645000
						CHANNELS 3 Xrotation Yrotation Zrotation
						JOINT LeftToe_End
						{
							OFFSET 2.754700 0.931300 11.300900
							CHANNELS 3 Xrotation Yrotation Zrotation
							End Site
							{
								OFFSET 0 0 0
							}
						}
					}
				}
			}
		}
	}
	JOINT RightUpLeg_virtual
	{
		OFFSET 0.000000 0.000000 0.000000
		CHANNELS 3 Xrotation Yrotation Zrotation
		JOINT RightUpLeg
		{
			OFFSET -15.569500 -6.655098 0.678600
			CHANNELS 3 Xrotation Yrotation Zrotation
			JOINT RightLeg
			{
				OFFSET -4.081825 -39.591045 13.023800
				CHANNELS 3 Xrotation Yrotation Zrotation
				JOINT RightFoot
				{
					OFFSET 4.081824 -37.707954 -15.979600
					CHANNELS 3 Xrotation Yrotation Zrotation
					JOINT RightToeBase
					{
						OFFSET -5.346400 -15.068900 20.645000
						CHANNELS 3 Xrotation Yrotation Zrotation
						JOINT RightToe_End
						{
							OFFSET -2.754700 0.931300 11.300900
							CHANNELS 3 Xrotation Yrotation Zrotation
							End Site
							{
								OFFSET 0 0 0
							}
						}
					}
				}
			}
		}
	}
	JOINT Spine_virtual
	{
		OFFSET 0.000000 0.000000 0.000000
		CHANNELS 3 Xrotation Yrotation Zrotation
		JOINT Spine
		{
			OFFSET -0.279200 12.230698 -2.892100
			CHANNELS 3 Xrotation Yrotation Zrotation
			JOINT Spine1
			{
				OFFSET -0.232667 10.192268 -1.242267
				CHANNELS 3 Xrotation Yrotation Zrotation
				JOINT Spine1_split
				{
					OFFSET -0.232667 10.192268 -1.242267
					CHANNELS 3 Xrotation Yrotation Zrotation
					JOINT Spine2
					{
						OFFSET -0.232667 10.192268 -1.242267
						CHANNELS 3 Xrotation Yrotation Zrotation
						JOINT Neck_virtual
						{
							OFFSET 0.000000 0.000000 0.000000
							CHANNELS 3 Xrotation Yrotation Zrotation
							JOINT Neck
							{
								OFFSET -0.418800 17.814194 8.416900
								CHANNELS 3 Xrotation Yrotation Zrotation
								JOINT Head
								{
									OFFSET 0.000000 7.031097 3.806800
									CHANNELS 3 Xrotation Yrotation Zrotation
									JOINT HeadTop_End
									{
										OFFSET 0.000000 24.646606 12.978600
										CHANNELS 3 Xrotation Yrotation Zrotation
										End Site
										{
											OFFSET 0 0 0
										}
									}
								}
							}
						}
						JOINT LeftShoulder_virtual
						{
							OFFSET 0.000000 0.000000 0.000000
							CHANNELS 3 Xrotation Yrotation Zrotation
							JOINT LeftShoulder
							{
								OFFSET 8.476499 7.247704 -3.868750
								CHANNELS 3 Xrotation Yrotation Zrotation
								JOINT LeftShoulder_split
								{
									OFFSET 8.476499 7.247704 -3.868750
									CHANNELS 3 Xrotation Yrotation Zrotation
									JOINT LeftArm
									{
										OFFSET 9.308998 -2.777710 0.208600
										CHANNELS 3 Xrotation Yrotation Zrotation
										JOINT LeftForeArm
										{
											OFFSET 29.972298 0.000000 0.000000
											CHANNELS 3 Xrotation Yrotation Zrotation
											JOINT LeftHand
											{
												OFFSET 26.026505 0.000000 0.000000
												CHANNELS 3 Xrotation Yrotation Zrotation
												End Site
												{
													OFFSET 0 0 0
												}
											}
										}
									}
								}
							}
						}
						JOINT RightShoulder_virtual
						{
							OFFSET 0.000000 0.000000 0.000000
							CHANNELS 3 Xrotation Yrotation Zrotation
							JOINT RightShoulder
							{
								OFFSET -7.570500 7.247704 -3.868750
								CHANNELS 3 Xrotation Yrotation Zrotation
								JOINT RightShoulder_split
								{
									OFFSET -7.570500 7.247704 -3.868750
									CHANNELS 3 Xrotation Yrotation Zrotation
									JOINT RightArm
									{
										OFFSET -9.308998 -2.777710 0.208500
										CHANNELS 3 Xrotation Yrotation Zrotation
										JOINT RightForeArm
										{
											OFFSET -29.972300 0.000000 0.000000
											CHANNELS 3 Xrotation Yrotation Zrotation
											JOINT RightHand
											{
												OFFSET -26.026505 0.000000 0.000000
												CHANNELS 3 Xrotation Yrotation Zrotation
												End Site
												{
													OFFSET 0 0 0
												}
											}
										}
									}
								}
							}
						}
					}
				}
			}
		}
	}
}
MOTION
Frames: 4
Frame Time: 0.03333333
2.730011 83.949188 0.236420 0.000000 0.000000 0.000000 5.322084 -6.872460 -1.963463 -37.134280 6.734225 22.310311 60.851590 5.179087 -1.897657 4.632706 10.961619 -14.898856 -30.670230 -0.000009 0.000001 0.000000 0.000000 0.000000 5.322084 -6.872460 -1.963463 -30.529088 -6.048008 4.880928 43.481691 -1.891872 -1.768398 -20.509549 -5.446414 -2.349606 7.159287 0.000007 -0.000002 0.000000 0.000000 0.000000 5.322084 -6.872460 -1.963463 9.116318 3.572929 5.859221 6.474938 1.246103 1.050140 0.000000 0.000000 0.000000 0.000000 0.000000 0.000000 6.471410 1.202600 1.091236 2.140439 -0.614931 -1.384965 -3.656097 -2.727634 0.126231 0.000000 0.000000 0.000000 6.471410 1.202600 1.091236 1.724442 -9.915036 -14.934991 0.000000 0.000000 0.000000 -25.063145 2.043299 -69.542186 0.000001 -31.031301 -0.000001 0.000000 0.000000 0.000000 6.471410 1.202600 1.091236 4.830915 17.858061 5.566073 0.000000 0.000000 0.000000 -15.198216 0.576455 66.754977 -0.000004 21.881886 0.000012 0.000000 0.000000 0.000000 
2.479246 84.209877 0.568550 0.000000 0.000000 0.000000 5.369616 -6.885008 -1.398435 -38.024281 8.283777 22.120464 59.766901 6.042316 -2.180053 4.417648 7.939624 -13.867716 -29.716883 0.000002 -0.000003 0.000000 0.000000 0.000000 5.369616 -6.885008 -1.398435 -30.221036 -5.853351 4.265989 43.271151 -2.488615 -1.723038 -20.651536 -4.677170 -2.059351 7.159289 0.000006 -0.000000 0.000000 0.000000 0.000000 5.369616 -6.885008 -1.398435 9.087171 3.621431 5.819711 6.458227 1.270574 1.050137 0.000000 0.000000 0.000000 0.000000 0.000000 0.000000 6.454843 1.219982 1.086653 2.140425 -0.658715 -1.366249 -3.626630 -2.970674 -0.373948 0.000000 0.000000 0.000000 6.454843 1.219982 1.086653 1.707822 -9.871301 -14.933498 0.000000 0.000000 0.000000 -24.720374 1.875868 -69.543374 -0.000021 -31.071804 -0.000050 0.000000 0.000000 0.000000 6.454843 1.219982 1.086653 4.783126 17.784940 5.634550 0.000000 0.000000 0.000000 -15.255321 -0.757014 66.514493 -0.000001 21.916141 0.000001 0.000000 0.000000 0.000000 
1.978843 84.562202 1.259930 0.000000 0.000000 0.000000 5.436161 -6.814855 -0.549721 -38.685331 9.583814 19.554260 57.439610 6.356057 -2.374942 2.959332 4.734975 -11.996901 -27.141384 0.000000 0.000004 0.000000 0.000000 0.000000 5.436161 -6.814855 -0.549721 -29.486842 -5.550215 3.532225 43.051980 -3.236384 -1.676228 -21.312449 -3.821601 -1.804364 7.159287 0.000010 -0.000002 0.000000 0.000000 0.000000 5.436161 -6.814855 -0.549721 9.001736 3.725383 5.716786 6.408334 1.343090 1.038724 0.000000 0.000000 0.000000 0.000000 0.000000 0.000000 6.405866 1.274518 1.063853 2.140432 -0.766234 -1.362486 -3.498523 -3.486839 -1.029327 0.000000 0.000000 0.000000 6.405866 1.274518 1.063853 1.665942 -9.745070 -14.916923 0.000000 0.000000 0.000000 -24.239259 1.601048 -69.677143 0.000004 -31.120879 0.000015 0.000000 0.000000 0.000000 6.405866 1.274518 1.063853 4.647963 17.576322 5.828746 0.000000 0.000000 0.000000 -15.030451 -2.293396 66.012972 -0.000005 22.078583 0.000013 0.000000 0.000000 0.000000 
1.534316 85.096848 2.308815 0.000000 0.000000 0.000000 5.510227 -6.696126 0.535261 -39.432072 10.774749 16.671428 53.443198 6.619328 -2.306627 1.664866 2.318729 -9.142066 -23.370604 -0.000006 0.000000 0.000000 0.000000 0.000000 5.510227 -6.696126 0.535261 -28.344469 -5.066170 2.468602 42.585963 -3.963457 -1.578540 -22.152124 -3.015027 -1.414809 7.159283 -0.000006 0.000000 0.000000 0.000000 0.000000 5.510227 -6.696126 0.535261 8.869457 3.850626 5.485195 6.327511 1.454021 1.012416 0.000000 0.000000 0.000000 0.000000 0.000000 0.000000 6.326473 1.357848 1.019105 2.140433 -0.918787 -1.370702 -3.275317 -4.197977 -1.746192 0.000000 0.000000 0.000000 6.326473 1.357848 1.019105 1.601745 -9.544017 -14.888631 0.000000 0.000000 0.000000 -23.625385 1.258200 -69.819314 0.000000 -31.187518 0.000001 0.000000 0.000000 0.000000 6.326473 1.357848 1.019105 4.438745 17.247899 6.131078 0.000000 0.000000 0.000000 -14.574160 -3.935002 65.353948 -0.000001 22.347039 0.000006 0.000000 0.000000 0.000000 
